# xmcd CD database file
#
# Track frame offsets:
#	150
#	34177
#	59872
#	67246
#	84238
#	116715
#	130579
#	154886
#	185038
#	200520
#	231200
#
# Disc length: 3343 seconds
#
# Revision: 0
# Processed by: cddbd v1.4PL0 Copyright (c) Steve Scherf et al.
# Submitted via: CDex 1.50beta9
#
DISCID=a30d0d0b
DTITLE=Jacky Terrasson - A Paris
DYEAR=1997
DGENRE=Jazz
TTITLE0=I Love Paris
TTITLE1=Just a Blues
TTITLE2=My Funny Valentine
TTITLE3=Hommage a Lili Boulanger
TTITLE4=Bye bye Blackbird
TTITLE5=He Goes on a Trip
TTITLE6=I fall in Love too easily
TTITLE7=Time After Time
TTITLE8=For once in my life
TTITLE9=What a difference a day made
TTITLE10=Cumba's dance
EXTD=YEAR: 1997
EXTT0=
EXTT1=
EXTT2=
EXTT3=
EXTT4=
EXTT5=
EXTT6=
EXTT7=
EXTT8=
EXTT9=
EXTT10=
PLAYORDER=
